<?xml version="1.0" encoding="UTF-8" standalone="no"?>
<!DOCTYPE svg PUBLIC "-//W3C//DTD SVG 1.1//EN" "http://www.w3.org/Graphics/SVG/1.1/DTD/svg11.dtd">
<svg width="100%" height="100%" viewBox="0 0 1533 1533" version="1.1" xmlns="http://www.w3.org/2000/svg" xmlns:xlink="http://www.w3.org/1999/xlink" xml:space="preserve" xmlns:serif="http://www.serif.com/" style="fill-rule:evenodd;clip-rule:evenodd;stroke-linejoin:round;stroke-miterlimit:2;">
    <g transform="matrix(1,0,0,1,-233.557,-233.557)">
        <g id="Expand-Icon" serif:id="Expand Icon" transform="matrix(1,0,0,1,-33.6,-33.6)">
            <path d="M767.157,1800.04L267.157,1800.04L267.157,1300.04L455.285,1488.17L738.128,1205.33L861.872,1329.07L579.029,1611.91L767.157,1800.04ZM1800.04,1300.04L1800.04,1800.04L1300.04,1800.04L1488.17,1611.91L1205.33,1329.07L1329.07,1205.33L1611.91,1488.17L1800.04,1300.04ZM267.157,767.157L267.157,267.157L767.157,267.157L579.029,455.285L861.872,738.128L738.128,861.872L455.285,579.029L267.157,767.157ZM1300.04,267.157L1800.04,267.157L1800.04,767.157L1611.91,579.029L1329.07,861.872L1205.33,738.128L1488.17,455.285L1300.04,267.157Z" style="fill:white;"/>
        </g>
    </g>
</svg>
