<?xml version="1.0" encoding="UTF-8" standalone="no"?>
<!DOCTYPE svg PUBLIC "-//W3C//DTD SVG 1.1//EN" "http://www.w3.org/Graphics/SVG/1.1/DTD/svg11.dtd">
<svg width="100%" height="100%" viewBox="0 0 1500 1500" version="1.1" xmlns="http://www.w3.org/2000/svg" xmlns:xlink="http://www.w3.org/1999/xlink" xml:space="preserve" xmlns:serif="http://www.serif.com/" style="fill-rule:evenodd;clip-rule:evenodd;stroke-linejoin:round;stroke-miterlimit:2;">
    <g transform="matrix(1,0,0,1,-250,-250)">
        <path d="M250,1750L250,750L1000,250L1250,416.667L1250,1750L750,416.667L250,1750ZM1500,583.333L1750,750L1750,1750L1500,1750L1500,583.333ZM916.667,1500L1000,1750L500,1750L583.333,1500L916.667,1500ZM843.333,1280L656.667,1280L750,1000L843.333,1280ZM1500,583.333L1250,416.667L1250,250L1500,250L1500,583.333Z" style="fill:url(#_Linear1);"/>
    </g>
    <defs>
        <linearGradient id="_Linear1" x1="0" y1="0" x2="1" y2="0" gradientUnits="userSpaceOnUse" gradientTransform="matrix(1500,-1500,1500,1500,250,1750)"><stop offset="0" style="stop-color:rgb(0,255,232);stop-opacity:1"/><stop offset="1" style="stop-color:rgb(0,91,255);stop-opacity:1"/></linearGradient>
    </defs>
</svg>
