<?xml version="1.0" encoding="UTF-8" standalone="no"?>
<!DOCTYPE svg PUBLIC "-//W3C//DTD SVG 1.1//EN" "http://www.w3.org/Graphics/SVG/1.1/DTD/svg11.dtd">
<svg width="100%" height="100%" viewBox="0 0 1657 1657" version="1.1" xmlns="http://www.w3.org/2000/svg" xmlns:xlink="http://www.w3.org/1999/xlink" xml:space="preserve" xmlns:serif="http://www.serif.com/" style="fill-rule:evenodd;clip-rule:evenodd;stroke-linejoin:round;stroke-miterlimit:2;">
    <g transform="matrix(1,0,0,1,-171.728,-171.728)">
        <g id="Shrink-Icon" serif:id="Shrink Icon" transform="matrix(1,0,0,1,-33.6,-33.6)">
            <path d="M300.043,1267.16L800.043,1267.16L800.043,1767.16L611.915,1579.03L329.072,1861.87L205.328,1738.13L488.171,1455.29L300.043,1267.16ZM1267.16,1767.16L1267.16,1267.16L1767.16,1267.16L1579.03,1455.29L1861.87,1738.13L1738.13,1861.87L1455.29,1579.03L1267.16,1767.16ZM800.043,300.043L800.043,800.043L300.043,800.043L488.171,611.915L205.328,329.072L329.072,205.328L611.915,488.171L800.043,300.043ZM1767.16,800.043L1267.16,800.043L1267.16,300.043L1455.29,488.171L1738.13,205.328L1861.87,329.072L1579.03,611.915L1767.16,800.043Z" style="fill:white;"/>
        </g>
    </g>
</svg>
